<svg xmlns="http://www.w3.org/2000/svg" viewBox="0 0 191.89 67.12"><defs><style>.cls-1{fill:#946cb3;}.cls-2{font-size:11px;font-family:NunitoSans-Light, Nunito Sans;font-weight:300;}.cls-3{letter-spacing:-0.01em;}.cls-4{letter-spacing:-0.02em;}.cls-5{letter-spacing:0em;}</style></defs><title>Zasób 9</title><g id="Warstwa_2" data-name="Warstwa 2"><g id="Warstwa_1-2" data-name="Warstwa 1"><path class="cls-1" d="M58.26,51.41c-5.54,0-10-3.81-10-8.57a.89.89,0,0,1,.94-.79h2a.91.91,0,0,1,1,.79v.36c0,2.88,2.67,5.26,6,5.26h2.52c3.31,0,6-2.38,6-5.26V35.93c0-3.74-2.59-7.34-6.91-10.08-.87-.5-2.45-1.44-4.18-2.66a26.46,26.46,0,0,1-4.89-4.54,12.1,12.1,0,0,1-2.6-7.49V8.5c0-4.68,4.47-8.5,10-8.5h2.52c5.47,0,10,3.82,10,8.5a.91.91,0,0,1-1,.86h-2a.89.89,0,0,1-.94-.86V8.21c0-3-2.74-5.33-6-5.33H58.26c-3.38,0-6,2.38-6,5.33v3.46c0,3.67,2.52,7.27,6.92,10,.79.51,2.37,1.44,4.1,2.74a24.5,24.5,0,0,1,5,4.54,12.4,12.4,0,0,1,2.59,7.48v6.41c0,4.76-4.54,8.57-10,8.57Z"/><path class="cls-1" d="M82.38,64.3h-2a.69.69,0,0,1-.72-.86l4.47-15h-.58a1.23,1.23,0,0,1-1.15-.87l-8-29.59c-.15-.43.21-.79.72-.79h2a1.21,1.21,0,0,1,1.16.79l5,19.23,1.58,9.43h.65l1.65-9.43,5.19-19.23a1.1,1.1,0,0,1,1.08-.79h2c.5,0,.86.36.72.79L83.46,63.44A1.16,1.16,0,0,1,82.38,64.3Z"/><path class="cls-1" d="M100.67,45V1.87a.88.88,0,0,1,.93-.79h1.88a.88.88,0,0,1,.93.79V45.36a3.24,3.24,0,0,0,3.39,3.1.83.83,0,0,1,.86.86v1.3a.82.82,0,0,1-.86.79C103.84,51.41,100.67,48.53,100.67,45Z"/><path class="cls-1" d="M140.77,51.41h-4.1a1.09,1.09,0,0,1-1.08-.86l-4.32-19.44-.43-3-.51-8.06h-.72l-.5,8.06-.43,3-4.32,19.37a1.1,1.1,0,0,1-1.08.86h-4.11a1.23,1.23,0,0,1-1.15-.86l-7.27-32.62a.66.66,0,0,1,.72-.79h1.94a1.09,1.09,0,0,1,1.08.79l4.18,18.65,1.73,8.93.5,3h.65l.5-3,1.73-8.93L128,17.93a1.09,1.09,0,0,1,1.08-.79h1.87a1.27,1.27,0,0,1,1.15.79l4.11,18.65,1.72,8.93.51,3h.72l.43-3,1.73-8.86,4.17-18.72a1.11,1.11,0,0,1,1.08-.79h1.95a.67.67,0,0,1,.72.79l-7.27,32.62A1.24,1.24,0,0,1,140.77,51.41Z"/><path class="cls-1" d="M154.6,10a.89.89,0,0,1-.94-.79V4.9A.89.89,0,0,1,154.6,4h1.87a.89.89,0,0,1,.93.87V9.22a.88.88,0,0,1-.93.79Zm0,41.4a.89.89,0,0,1-.94-.79V18a.89.89,0,0,1,.94-.86h1.87a.89.89,0,0,1,.93.86V50.62a.88.88,0,0,1-.93.79Z"/><path class="cls-1" d="M179.22,51.41a.89.89,0,0,1-.94-.79V49.47l.51-1.95-.65-.21-1,1.87a7,7,0,0,1-5,2.23h-1.94c-3.89,0-7.06-2.88-7.06-6.41V39.1c0-4,7.85-8.57,15.19-10.15V23.19a3.24,3.24,0,0,0-3.38-3.1h-3.53a3.24,3.24,0,0,0-3.38,3.1v.36a.84.84,0,0,1-.94.79h-1.87a.89.89,0,0,1-.94-.79c0-3.53,3.17-6.41,7.13-6.41h3.53c4,0,7.13,2.88,7.13,6.41V50.62a.89.89,0,0,1-.94.79ZM166.83,39.1v6.26a3.23,3.23,0,0,0,3.32,3.1h1.94c1.23,0,4.47-1.3,6.19-5.54V31.32C171.8,33,166.83,37.59,166.83,39.1Z"/><path d="M0,42.63c.07.15.17.11.25.09L12.12,39.6,14,33.4l-13.85,9C0,42.44,0,42.49,0,42.63Z"/><path d="M33.28,35.34a6,6,0,0,0,9.24-.15,6.28,6.28,0,0,0-.42-8.36,5.62,5.62,0,0,0-8-.47,6.81,6.81,0,0,0-2.14,5.89l.06.44-.41.1c-.49.12-1.18.32-2.17.63A12.53,12.53,0,0,1,23,33.1a19.92,19.92,0,0,0,1.18,3.22l.06.1L27,35.68l5.58-1.3.18.28a4.73,4.73,0,0,0,.32.46h0Zm2-7.56a3.7,3.7,0,0,1,2.91-1A4.5,4.5,0,0,1,42,31.53a4.34,4.34,0,0,1-1.43,3,4,4,0,0,1-2.68,1h-.22A3.9,3.9,0,0,1,34,32.82,4.85,4.85,0,0,1,35.29,27.78Z"/><path d="M30.33,3c0-.08-.11-.22-.2-.23a.23.23,0,0,0-.12,0,3.35,3.35,0,0,0-.23,1.47c0,.29,0,.55-.05.77-.17,1.34-.3,1.51-1.58,3.13a6.78,6.78,0,0,1-3.75,2l-.1,0-.1,0a5.91,5.91,0,0,0-5.7,1.75,6.34,6.34,0,0,0,.18,8.79l.24.21.39.32.27.19-1.51,5.66L10,54.23c0,.1-.07.2.07.28s.18,0,.22-.07L22.13,37c-.91-2-3.07-8.5-1.77-12.26.36-1,.58-1.7.72-2.19l.11-.42.42.08a6.43,6.43,0,0,0,5.83-1.92,5.89,5.89,0,0,0,.67-7.24l0-.09c-.66-1.84.16-3.11,1.1-4.58l.47-.74A6.4,6.4,0,0,0,30.33,3ZM20.17,37a1.73,1.73,0,0,1-2.45.32,1.83,1.83,0,0,1-.31-2.52,1.72,1.72,0,0,1,1.16-.69,1.68,1.68,0,0,1,1.29.37A1.83,1.83,0,0,1,20.17,37Zm5.95-18a4.64,4.64,0,0,1-3.36,1.45,4.18,4.18,0,0,1-1.6-.31,4,4,0,0,1-2.41-4,4.37,4.37,0,0,1,1.09-3,4.14,4.14,0,0,1,5.95-.11A4.12,4.12,0,0,1,26.12,19Z"/><polygon points="37 24.07 36.06 24.07 36.06 16.99 29.97 16.99 29.97 16.02 37 16.02 37 24.07"/><polygon points="37 48.6 15.61 48.6 15.61 47.63 36.06 47.63 36.06 38.32 37 38.32 37 48.6"/><polygon points="10.84 48.6 5.3 48.6 5.3 42.27 6.24 42.27 6.24 47.63 10.84 47.63 10.84 48.6"/><polygon points="6.24 37.45 5.3 37.45 5.3 16.02 15.61 16.02 15.61 16.99 6.24 16.99 6.24 37.45"/><text class="cls-2" transform="translate(87.32 64.3)"><tspan class="cls-3">Z</tspan><tspan x="6.31" y="0">AK</tspan><tspan class="cls-4" x="20.98" y="0">Ł</tspan><tspan x="26.73" y="0">AD F</tspan><tspan class="cls-5" x="51.54" y="0">R</tspan><tspan x="58.99" y="0">YZIERSKI</tspan></text></g></g></svg>