<svg xmlns="http://www.w3.org/2000/svg" viewBox="0 0 211.99 253.64"><defs><style>.cls-1{fill:#946cb3;}</style></defs><title>Zasób 6</title><g id="Warstwa_2" data-name="Warstwa 2"><g id="Warstwa_1-2" data-name="Warstwa 1"><path class="cls-1" d="M48.18,0A47.64,47.64,0,0,0,10.41,18.3C3.74,26.93.35,37.72.05,51.3A195.15,195.15,0,0,0,4.26,96.46a178.82,178.82,0,0,0,15.31,43.45c6.76,13.32,15.88,25.51,23.89,35.88L46.7,180c8.21,10.69,16,20.79,25.85,29.82a179.74,179.74,0,0,0,32.22,23.38,193.78,193.78,0,0,0,36.49,16c11.2,3.62,24.51,6.7,38.31,2.12,22.75-7.56,36.51-32.06,31.33-55.79-1.17-5.33-1.57-11.88-6-14.89C195,174,158,172.31,158,172.31c-3.23-.57-6.46-1.23-9.69-1.9-4-.81-8-1.63-12-2.28-3.39-.57-6,3-8.38,6.12l-.59.78a20.06,20.06,0,0,0-1.22,2c-1.28,2.22-2.72,4.74-4.86,5.63-1.89.8-4.21-.09-6.26-.88-.47-.18-.89-.35-1.24-.45a111.6,111.6,0,0,1-19.08-7.62C82.59,167.39,74.4,155.48,67.18,145l-.62-.91c-4.92-7.16-7.55-13.24-8.77-20.33a127,127,0,0,1-1.4-21.79c0-.27,0-.61-.06-1-.13-1.64-.3-3.69.8-5.08,1.47-1.86,4.55-2.53,7.28-3.12a18.53,18.53,0,0,0,2.45-.61l.64-.23c5-1.81,8-3.11,8.34-7,.91-11.06,2.51-22.24,4-33,.6-4.26,1.21-8.52,1.78-12.78l1.55-11.63c.12-.9.35-2,.61-3.23.53-2.53,1.33-6.34.71-7.8S74.36,7.6,71.82,6.17A48.17,48.17,0,0,0,48.18,0Z"/></g></g></svg>