<svg xmlns="http://www.w3.org/2000/svg" viewBox="0 0 317.28 282.75"><defs><style>.cls-1{fill:#fff;}</style></defs><title>Zasób 5</title><g id="Warstwa_2" data-name="Warstwa 2"><g id="Warstwa_1-2" data-name="Warstwa 1"><path class="cls-1" d="M106.54,82.91l35.51,10.57-3.7-5.7h0L90.59,14.26c-.31-.51-.57-.93-1.4-.57s-.64,1-.5,1.39Z"/><path class="cls-1" d="M148.58,196.35l-2.49.34-.57-2.38c-.67-2.76-1.82-6.7-3.61-12.39-1.71-5.44-2-11.72-1.52-18.07q.13-1.66.33-3.33c0-.17.05-.33.07-.5.13-1.08.28-2.16.45-3.23h0c.54-3.38,1.25-6.68,2-9.81h0c.16-.65.33-1.3.5-1.94h0a139.57,139.57,0,0,0-15,5.21l0,0-.77.33-.06,0-.71.32,0,0-.68.32h0c-.4.19-.77.38-1.09.55s-.39.2-.59.29L129,168.29l5.67,24.42h0l1.45,6.23h0l.3,1.3-1.62,1c-.9.56-1.76,1.18-2.61,1.83h0L131,204a35.1,35.1,0,0,0-3,2.86h0c-.71.77-1.38,1.56-2,2.38h0a34,34,0,0,0,5.85,47.6c14.24,11.51,34.34,10.52,47.8-2.37,13.68-13.11,14.83-32.42,2.7-45.92A38.87,38.87,0,0,0,148.58,196.35Zm31.15,35.83a25.48,25.48,0,0,1-44,13.77,22.72,22.72,0,0,1-5.58-15.36c0-.41,0-.83,0-1.25.48-10.55,6-18.39,15.16-21.51a27.77,27.77,0,0,1,28.85,7.66A21.18,21.18,0,0,1,179.73,232.18Z"/><path class="cls-1" d="M317.18,185.31c-1-1.13-5.81-1.28-8.39-1.35-1.64-.05-3.17-.11-4.42-.26-7.67-1-8.63-1.72-17.88-9.07-7.18-5.71-10.26-15.9-11.46-21.46l-.12-.58L275,152a33.8,33.8,0,0,0-10-32.59,36.32,36.32,0,0,0-50.3,1l-1.2,1.34c-.71.83-1.28,1.54-1.82,2.28l-1.11,1.52-32.39-8.66L22.84,70.73c-.58-.21-1.18-.42-1.6.38a.81.81,0,0,0,.36,1.27l99.75,67.81c11.48-5.22,48.67-17.58,70.17-10.1,5.76,2,9.75,3.3,12.55,4.08l2.42.67-.46,2.4a36.61,36.61,0,0,0,11,33.35c11.45,10.68,27.7,12.19,41.4,3.83l.51-.25c10.54-3.73,17.79.93,26.2,6.33,1.35.87,2.76,1.78,4.24,2.69,7.93,4.87,21.46,6.26,26.56,3.93.47-.22,1.26-.65,1.33-1.16S317.22,185.36,317.18,185.31Zm-181.25-58.1A10.48,10.48,0,0,1,121.49,129a9.91,9.91,0,0,1-4-7.92,9.79,9.79,0,0,1,2.15-6.12,10.49,10.49,0,0,1,14.44-1.78,9.87,9.87,0,0,1,3.9,6.65A9.72,9.72,0,0,1,135.93,127.21Zm122.34,33.91C248.33,171.2,234.12,172,224.49,163a26.57,26.57,0,0,1-8.32-19.23,24,24,0,0,1,1.77-9.13c3.6-8.73,11.86-13.76,22.66-13.78a24.78,24.78,0,0,1,17,6.25A23.72,23.72,0,0,1,258.27,161.12Z"/><path class="cls-1" d="M156.86,139.75l20.88,18.8h0a1.49,1.49,0,0,0,2.09-2.1h0L163.79,138.6C161.48,138.92,159.16,139.31,156.86,139.75Z"/><path class="cls-1" d="M158.67,100.7l13.53,4-8.42-9.35,4.09-4.1,19.84,17.86,10.43,2.79L174,85.13l4.09-4.1,32.7,29.44c1.05-.88,2.14-1.7,3.25-2.48L184.25,74.88l4.1-4.1,35.57,32c1.25-.47,2.52-.88,3.81-1.25L194.49,64.64l4.1-4.1L239,96.91h0a1.47,1.47,0,0,0,2-.07,1.45,1.45,0,0,0,.07-2h0L204.73,54.4l4.1-4.11,40.29,36.27,0,0h0l0,0h0a1.48,1.48,0,0,0,2.09-2.1h0L215,44.16l4.11-4.11,40.34,36.31h0a1.48,1.48,0,0,0,2.1-2.09h0L225.2,33.92l4.11-4.12,40.3,36.29h0a1.49,1.49,0,0,0,2.1-2.09h0L235.44,23.67l6.41-6.41c12.73,12.66,25.73,25.07,38.57,37.62a1.17,1.17,0,0,0,1.36.19,1.23,1.23,0,0,0,.57-1.61l-.16-.34c-1.07-2.22-2.23-4.34-3.39-6.47s-2.3-4.26-3.55-6.29c-2.5-4.08-4.8-8.35-7.47-12.25L260,16.19c-2.67-3.9-5.36-7.78-8.12-11.59-.08-.12-.19-.27-.28-.38a11.59,11.59,0,0,0-16.42-1.51L232.35,5c-30,24.13-58.74,49.52-86.62,75.79L150.44,88Z"/><path class="cls-1" d="M118.52,202.56c.86-1.08,1.77-2.13,2.74-3.13L91.89,166.81l4.07-4,27.18,24.47-2.3-9.91-18.65-20.7,4.08-4,10.82,9.74-2-7.66-1.93-7.49-.66-.73.12-.12L92.74,132.83c-11.82,12.06-23.5,24.27-34.91,36.75C39.79,189.23,22.18,209.3,5.19,230l-2.27,2.77-.26.32a12.22,12.22,0,0,0,2.06,17.3c4,3,8.08,5.78,12.17,8.63s8.27,5.6,12.52,8.28,8.59,5.27,12.94,7.85c2.17,1.3,4.36,2.57,6.64,3.75s4.49,2.45,6.84,3.57l.35.16a1.22,1.22,0,0,0,1.41-1.93C44.34,267.13,31.22,253.41,17.83,240l6-5.89,41.65,37.5h0a1.48,1.48,0,0,0,2.09-2.09h0L30.1,227.85l4-4,41.55,37.41h0a1.45,1.45,0,0,0,2-.07,1.47,1.47,0,0,0,.07-2h0L40.4,217.67l4-4L85.87,251h0A1.48,1.48,0,0,0,88,248.92h0L50.69,207.5l4-4,41.35,37.22h0a1.49,1.49,0,0,0,2.1-2.1h0L61,197.33l4.05-4,41.24,37.14h0a1.48,1.48,0,0,0,2.09-2.09h0l-37.1-41.2,4.06-4,36,32.39c.46-1.3,1-2.59,1.54-3.84L81.59,177l4.06-4Z"/><path class="cls-1" d="M183,138.28a50.23,50.23,0,0,0-6.69-.52L188,148.28h0a1.48,1.48,0,0,0,2.09-2.09h0Z"/><path class="cls-1" d="M150.33,172.8l7,6.3h0a1.49,1.49,0,0,0,2.1-2.09h0l-9.18-10.21A47.59,47.59,0,0,0,150.33,172.8Z"/><path class="cls-1" d="M151.79,154.65l15.74,14.18h0a1.49,1.49,0,0,0,2.1-2.09h0l-16.43-18.25C152.67,150.59,152.19,152.65,151.79,154.65Z"/></g></g></svg>