<svg version="1.1" id="Warstwa_1" xmlns="http://www.w3.org/2000/svg" xmlns:xlink="http://www.w3.org/1999/xlink" x="0px" y="0px"
	 viewBox="0 0 114 17" style="enable-background:new 0 0 114 17;" xml:space="preserve">
<style type="text/css">
	.st0{fill:#070606;}
</style>
<g>
	<g>
		<g>
			<path class="st0" d="M50.3,16.6H8.5c-4.3,0-7.7-3.6-7.7-8.1s3.5-8.1,7.7-8.1h41.8c4.3,0,7.7,3.6,7.7,8.1S54.6,16.6,50.3,16.6z
				 M8.5,1.9C5,1.9,2.3,4.9,2.3,8.5s2.8,6.6,6.2,6.6h41.8c3.4,0,6.2-2.9,6.2-6.6s-2.8-6.6-6.2-6.6H8.5z M49.2,12.5c-2.2,0-4-1.8-4-4
				s1.8-4,4-4c2.2,0,4,1.8,4,4S51.4,12.5,49.2,12.5z M49.2,6c-1.4,0-2.5,1.1-2.5,2.5s1.1,2.5,2.5,2.5s2.5-1.1,2.5-2.5S50.6,6,49.2,6
				z M39,12.5c-2.2,0-4-1.8-4-4s1.8-4,4-4c2.2,0,4,1.8,4,4S41.2,12.5,39,12.5z M39,6c-1.4,0-2.5,1.1-2.5,2.5S37.7,11,39,11
				s2.5-1.1,2.5-2.5S40.4,6,39,6z M30.6,11H8.2V9.5h22.4V11z M30.6,7.9H8.2V6.3h22.4V7.9z"/>
			<path class="st0" d="M49.2,12.5c-2.2,0-4-1.8-4-4s1.8-4,4-4c2.2,0,4,1.8,4,4S51.4,12.5,49.2,12.5z M49.2,6
				c-1.4,0-2.5,1.1-2.5,2.5s1.1,2.5,2.5,2.5s2.5-1.1,2.5-2.5S50.6,6,49.2,6z"/>
			<path class="st0" d="M39,12.5c-2.2,0-4-1.8-4-4s1.8-4,4-4c2.2,0,4,1.8,4,4S41.2,12.5,39,12.5z M39,6c-1.4,0-2.5,1.1-2.5,2.5
				S37.7,11,39,11s2.5-1.1,2.5-2.5S40.4,6,39,6z"/>
		</g>
		<g>
			<path class="st0" d="M67.2,8.4C66.7,8.1,66,7.8,65,7.6c-0.4-0.1-0.8-0.2-1-0.3c-0.2-0.1-0.4-0.2-0.5-0.3
				c-0.1-0.1-0.1-0.3-0.1-0.4c0-0.3,0.1-0.5,0.4-0.7c0.3-0.2,0.6-0.3,1.1-0.3c0.4,0,0.7,0,1,0.1C66,5.8,66.3,6,66.6,6.2
				c0.1,0.1,0.2,0.1,0.3,0.1c0.1,0,0.1,0,0.2,0c0.1,0,0.3-0.1,0.4-0.2c0.1-0.1,0.2-0.3,0.2-0.5c0-0.1,0-0.2-0.1-0.3
				c0-0.1-0.1-0.2-0.2-0.3c-0.7-0.5-1.5-0.8-2.6-0.8c-0.6,0-1.1,0.1-1.6,0.3c-0.5,0.2-0.8,0.5-1.1,0.9c-0.3,0.4-0.4,0.8-0.4,1.2
				c0,0.4,0.1,0.8,0.3,1.1c0.2,0.3,0.5,0.5,0.9,0.7c0.4,0.2,1,0.4,1.6,0.5c0.6,0.1,1,0.3,1.3,0.4c0.2,0.1,0.4,0.3,0.4,0.6
				c0,0.3-0.1,0.5-0.4,0.7c-0.3,0.2-0.6,0.2-1.1,0.2c-0.4,0-0.7,0-1.1-0.1c-0.3-0.1-0.6-0.2-1-0.4c-0.1-0.1-0.2-0.1-0.3-0.1
				c-0.1,0-0.2,0-0.2,0c-0.1,0-0.3,0.1-0.4,0.2c-0.1,0.1-0.2,0.3-0.2,0.5c0,0.1,0,0.3,0.1,0.3c0,0.1,0.1,0.2,0.2,0.3
				c0.3,0.2,0.7,0.4,1.2,0.6c0.5,0.1,1,0.2,1.6,0.2c0.6,0,1.2-0.1,1.6-0.3c0.5-0.2,0.8-0.5,1.1-0.8c0.3-0.4,0.4-0.8,0.4-1.2
				C67.8,9.2,67.6,8.8,67.2,8.4z"/>
			<path class="st0" d="M73.7,9.6c0.1-0.1,0.1-0.2,0.1-0.4c0-0.5-0.1-1-0.3-1.4c-0.2-0.4-0.5-0.7-0.9-0.9c-0.4-0.2-0.8-0.3-1.3-0.3
				c-0.5,0-1,0.1-1.4,0.4c-0.4,0.2-0.7,0.6-0.9,1c-0.2,0.4-0.3,0.9-0.3,1.5c0,0.6,0.1,1.1,0.4,1.5c0.2,0.4,0.6,0.7,1,1
				c0.4,0.2,0.9,0.3,1.5,0.3c0.3,0,0.6,0,0.9-0.1c0.3-0.1,0.6-0.2,0.9-0.3c0.1-0.1,0.2-0.2,0.3-0.3c0.1-0.1,0.1-0.2,0.1-0.3
				c0-0.2,0-0.3-0.1-0.5c-0.1-0.1-0.2-0.2-0.4-0.2c-0.1,0-0.2,0-0.3,0c-0.1,0-0.2,0.1-0.3,0.1c-0.2,0.1-0.4,0.2-0.6,0.2
				C72,10.9,71.8,11,71.6,11c-0.4,0-0.7-0.1-0.9-0.3c-0.2-0.2-0.3-0.5-0.4-0.9h3.1C73.5,9.7,73.6,9.7,73.7,9.6z M70.3,8.9
				c0-0.4,0.2-0.7,0.3-0.9c0.2-0.2,0.4-0.3,0.8-0.3c0.3,0,0.6,0.1,0.7,0.3c0.2,0.2,0.3,0.5,0.3,0.9H70.3z"/>
			<path class="st0" d="M78,6.6l-0.2,0c-0.3,0-0.6,0.1-0.9,0.3c-0.3,0.2-0.5,0.4-0.6,0.7V7.3c0-0.2-0.1-0.4-0.2-0.5
				c-0.1-0.1-0.3-0.2-0.6-0.2c-0.2,0-0.4,0.1-0.6,0.2c-0.2,0.1-0.2,0.3-0.2,0.6v4c0,0.3,0.1,0.5,0.2,0.6c0.2,0.1,0.4,0.2,0.6,0.2
				c0.2,0,0.4-0.1,0.6-0.2c0.2-0.1,0.2-0.3,0.2-0.6V9.3c0-0.3,0.1-0.6,0.3-0.8c0.2-0.2,0.5-0.4,0.9-0.4l0.3,0c0.3,0,0.5-0.1,0.6-0.2
				c0.1-0.1,0.2-0.3,0.2-0.5c0-0.2-0.1-0.4-0.2-0.5C78.4,6.6,78.2,6.6,78,6.6z"/>
			<path class="st0" d="M83.9,6.6c-0.1,0-0.3,0-0.4,0.1c-0.1,0.1-0.2,0.2-0.3,0.3l-1.3,3l-1.4-3c-0.1-0.2-0.2-0.3-0.3-0.3
				c-0.1-0.1-0.3-0.1-0.4-0.1c-0.2,0-0.4,0.1-0.6,0.2C79.1,7,79,7.1,79,7.3c0,0.1,0,0.2,0.1,0.3l2,4.1c0.1,0.2,0.2,0.3,0.3,0.4
				c0.1,0.1,0.3,0.1,0.5,0.1c0.2,0,0.3,0,0.5-0.1c0.1-0.1,0.3-0.2,0.3-0.4l2-4.1c0.1-0.1,0.1-0.2,0.1-0.3c0-0.2-0.1-0.4-0.2-0.5
				C84.3,6.7,84.1,6.6,83.9,6.6z"/>
			<path class="st0" d="M90.1,9.6c0.1-0.1,0.1-0.2,0.1-0.4c0-0.5-0.1-1-0.3-1.4c-0.2-0.4-0.5-0.7-0.9-0.9c-0.4-0.2-0.8-0.3-1.3-0.3
				c-0.5,0-1,0.1-1.4,0.4c-0.4,0.2-0.7,0.6-0.9,1C85.2,8.4,85,8.9,85,9.4c0,0.6,0.1,1.1,0.4,1.5c0.2,0.4,0.6,0.7,1,1
				c0.4,0.2,0.9,0.3,1.5,0.3c0.3,0,0.6,0,0.9-0.1c0.3-0.1,0.6-0.2,0.9-0.3c0.1-0.1,0.2-0.2,0.3-0.3c0.1-0.1,0.1-0.2,0.1-0.3
				c0-0.2,0-0.3-0.1-0.5c-0.1-0.1-0.2-0.2-0.4-0.2c-0.1,0-0.2,0-0.3,0c-0.1,0-0.2,0.1-0.3,0.1c-0.2,0.1-0.4,0.2-0.6,0.2
				C88.4,10.9,88.2,11,88,11c-0.4,0-0.7-0.1-0.9-0.3c-0.2-0.2-0.3-0.5-0.4-0.9h3.1C89.9,9.7,90,9.7,90.1,9.6z M86.6,8.9
				c0-0.4,0.1-0.7,0.3-0.9c0.2-0.2,0.4-0.3,0.8-0.3s0.6,0.1,0.7,0.3c0.2,0.2,0.3,0.5,0.3,0.9H86.6z"/>
			<path class="st0" d="M94.4,6.6l-0.2,0c-0.3,0-0.6,0.1-0.9,0.3c-0.3,0.2-0.5,0.4-0.6,0.7V7.3c0-0.2-0.1-0.4-0.2-0.5
				c-0.1-0.1-0.3-0.2-0.6-0.2c-0.2,0-0.4,0.1-0.6,0.2c-0.2,0.1-0.2,0.3-0.2,0.6v4c0,0.3,0.1,0.5,0.2,0.6c0.2,0.1,0.4,0.2,0.6,0.2
				c0.2,0,0.4-0.1,0.6-0.2c0.2-0.1,0.2-0.3,0.2-0.6V9.3c0-0.3,0.1-0.6,0.3-0.8c0.2-0.2,0.5-0.4,0.9-0.4l0.3,0c0.3,0,0.5-0.1,0.6-0.2
				c0.1-0.1,0.2-0.3,0.2-0.5c0-0.2-0.1-0.4-0.2-0.5C94.8,6.6,94.6,6.6,94.4,6.6z"/>
			<path class="st0" d="M101.6,4.3c-0.2,0-0.4,0.1-0.6,0.2c-0.1,0.2-0.2,0.4-0.2,0.6v4.1l-3.7-4.7c-0.1-0.2-0.4-0.3-0.6-0.3
				c-0.2,0-0.4,0.1-0.6,0.2c-0.2,0.2-0.2,0.4-0.2,0.6v6.2c0,0.3,0.1,0.5,0.2,0.6c0.1,0.2,0.3,0.2,0.6,0.2s0.4-0.1,0.6-0.2
				c0.1-0.2,0.2-0.4,0.2-0.6V7.2l3.7,4.7c0.2,0.2,0.4,0.3,0.6,0.3c0.2,0,0.4-0.1,0.6-0.2c0.2-0.2,0.2-0.4,0.2-0.6V5.2
				c0-0.2-0.1-0.5-0.2-0.6C102.1,4.4,101.9,4.3,101.6,4.3z"/>
			<path class="st0" d="M108.6,9.6c0.1-0.1,0.1-0.2,0.1-0.4c0-0.5-0.1-1-0.3-1.4c-0.2-0.4-0.5-0.7-0.9-0.9c-0.4-0.2-0.8-0.3-1.3-0.3
				c-0.5,0-1,0.1-1.4,0.4c-0.4,0.2-0.7,0.6-0.9,1c-0.2,0.4-0.3,0.9-0.3,1.5c0,0.6,0.1,1.1,0.4,1.5c0.2,0.4,0.6,0.7,1,1
				c0.4,0.2,0.9,0.3,1.5,0.3c0.3,0,0.6,0,0.9-0.1c0.3-0.1,0.6-0.2,0.9-0.3c0.1-0.1,0.2-0.2,0.3-0.3c0.1-0.1,0.1-0.2,0.1-0.3
				c0-0.2,0-0.3-0.1-0.5c-0.1-0.1-0.2-0.2-0.4-0.2c-0.1,0-0.2,0-0.3,0c-0.1,0-0.2,0.1-0.3,0.1c-0.2,0.1-0.4,0.2-0.6,0.2
				c-0.2,0.1-0.4,0.1-0.6,0.1c-0.4,0-0.7-0.1-0.9-0.3c-0.2-0.2-0.3-0.5-0.4-0.9h3.1C108.4,9.7,108.5,9.7,108.6,9.6z M105.2,8.9
				c0-0.4,0.2-0.7,0.3-0.9c0.2-0.2,0.4-0.3,0.8-0.3s0.6,0.1,0.7,0.3c0.2,0.2,0.3,0.5,0.3,0.9H105.2z"/>
			<path class="st0" d="M113.1,11.2c-0.1-0.1-0.3-0.2-0.5-0.2l-0.3,0c-0.2,0-0.3-0.1-0.5-0.2c-0.1-0.1-0.2-0.3-0.2-0.5V8h0.8
				c0.2,0,0.4-0.1,0.6-0.2c0.1-0.1,0.2-0.3,0.2-0.5c0-0.4-0.3-0.6-0.7-0.6h-0.8V5.9c0-0.2-0.1-0.4-0.2-0.6c-0.1-0.1-0.3-0.2-0.6-0.2
				c-0.3,0-0.5,0.1-0.6,0.2c-0.2,0.1-0.2,0.3-0.2,0.6v0.9h-0.4c-0.2,0-0.4,0.1-0.6,0.2c-0.1,0.1-0.2,0.3-0.2,0.5
				c0,0.2,0.1,0.4,0.2,0.5c0.1,0.1,0.3,0.2,0.6,0.2h0.4v2.2c0,1.2,0.6,1.9,1.9,2l0.3,0c0.3,0,0.6,0,0.7-0.1c0.2-0.1,0.3-0.3,0.3-0.5
				C113.3,11.4,113.2,11.2,113.1,11.2z"/>
		</g>
	</g>
</g>
</svg>